<?xml version="1.0" encoding="UTF-8" standalone="no"?>
<!DOCTYPE svg PUBLIC "-//W3C//DTD SVG 1.1//EN" "http://www.w3.org/Graphics/SVG/1.1/DTD/svg11.dtd">
<svg width="100%" height="100%" viewBox="0 0 3187 3656" version="1.1" xmlns="http://www.w3.org/2000/svg" xmlns:xlink="http://www.w3.org/1999/xlink" xml:space="preserve" xmlns:serif="http://www.serif.com/" style="fill-rule:evenodd;clip-rule:evenodd;stroke-linejoin:round;stroke-miterlimit:1.41421;">
    <g>
        <g transform="matrix(1.18688,0,0,0.911295,-541.164,-386.333)">
            <path d="M1800.12,699.283L2929.9,1454.97L2498.36,2677.7L1101.88,2677.7L670.343,1454.97L1800.12,699.283Z" style="fill:white;"/>
        </g>
        <g transform="matrix(1.18688,0,0,-1.00701,-547.439,4045.03)">
            <path d="M1800.12,699.283L2929.9,1454.97L2498.36,2677.7L1101.88,2677.7L670.343,1454.97L1800.12,699.283Z" style="fill:white;"/>
        </g>
        <g>
            <path d="M2153.3,2201.2L1600.9,2522C1597.7,2523.9 1593.7,2523.9 1590.4,2522L1590.3,2818.1L2400.8,2343.2L2153.3,2201.2Z" style="fill:rgb(12,120,159);fill-rule:nonzero;"/>
            <path d="M3043,939.1L1591.9,102.9L1590,104L1590.6,501.4L2691.8,1131L2496.8,1243.7L1590.2,722.1L1590.6,1048.6L1591,1048.4L2233.3,1415.7L2233,2023.7L2780.5,2337.2L2780.3,2346.6L1591.3,3040.7L1591.1,3444.6L1591.3,3444.7L3043.1,2610.5L3043,939.1Z" style="fill:rgb(12,120,159);fill-rule:nonzero;"/>
        </g>
        <path d="M3043,939.1L1591.9,102.9L143.7,939.7L143.7,2610.7L1591.4,3444.7L3043.1,2610.4L3043,939.1ZM2780.3,2346.6L1591.3,3040.8L488.8,2411.2L681.8,2298.2L1589.3,2818.7L2400.8,2343.2L2153.3,2201.2L1600.9,2522C1597.7,2523.9 1593.7,2523.9 1590.4,2522L956.6,2154.7L956.3,1515.7L399.5,1196.4L1586.3,500.7C1587.3,500.1 1588.5,500.1 1589.5,500.7L2691.8,1131L2496.8,1243.8L1590.1,722.1L785.9,1194.1L1064.9,1354.4L1590.9,1048.4L2233.2,1415.7L2232.9,2023.7L2780.4,2337.2L2780.3,2346.6Z" style="fill:rgb(7,105,141);fill-rule:nonzero;"/>
        <path d="M1765.9,1617.8C1765.9,1520.1 1686.7,1440.8 1588.9,1440.8C1491.1,1440.8 1411.9,1520 1411.9,1617.8C1411.9,1691.4 1456.9,1754.6 1520.8,1781.2L1444.3,2131L1733.6,2131L1656.5,1781.4C1720.8,1754.8 1765.9,1691.6 1765.9,1617.8Z" style="fill:rgb(83,83,82);fill-rule:nonzero;"/>
        <path d="M1765.9,1617.8C1765.9,1521.2 1688.5,1442.7 1592.4,1440.9L1594.7,2131.1L1733.7,2131.1L1656.6,1781.5C1720.8,1754.8 1765.9,1691.6 1765.9,1617.8Z" style="fill:rgb(93,93,93);fill-rule:nonzero;"/>
        <g>
            <path d="M2153.3,2201.2L1600.9,2522C1597.7,2523.9 1593.7,2523.9 1590.4,2522L1590.3,2818.1L2400.8,2343.2L2153.3,2201.2Z" style="fill:rgb(12,120,159);fill-rule:nonzero;"/>
            <path d="M3043,939.1L1591.9,102.9L1590,104L1590.6,501.4L2691.8,1131L2496.8,1243.7L1590.2,722.1L1590.6,1048.6L1591,1048.4L2233.3,1415.7L2233,2023.7L2780.5,2337.2L2780.3,2346.6L1591.3,3040.7L1591.1,3444.6L1591.3,3444.7L3043.1,2610.5L3043,939.1Z" style="fill:rgb(12,120,159);fill-rule:nonzero;"/>
        </g>
    </g>
</svg>
